<?xml version="1.0" encoding="UTF-8"?>
<svg width="80px" height="80px" viewBox="0 0 80 80" version="1.1" xmlns="http://www.w3.org/2000/svg" xmlns:xlink="http://www.w3.org/1999/xlink">
    <!-- Generator: Sketch 48 (47235) - http://www.bohemiancoding.com/sketch -->
    <title>noun_Bitcoin_1510591</title>
    <desc>Created with Sketch.</desc>
    <defs></defs>
    <g id="Page-1" stroke="none" stroke-width="1" fill="none" fill-rule="evenodd">
        <g id="noun_Bitcoin_1510591" fill="#000000" fill-rule="nonzero">
            <path d="M46.1,27.541 L39.478,25.434 L36.968,35.573 L43.97,36.838 L43.972,36.831 C46.749,37.436 49.463,35.947 50.084,33.439 C50.716,30.883 48.932,28.242 46.1,27.541 Z" id="Shape"></path>
            <path d="M40,0.83 C18.367,0.83 0.83,18.367 0.83,40 C0.83,61.633 18.367,79.17 40,79.17 C61.633,79.17 79.17,61.633 79.17,40 C79.17,18.367 61.633,0.83 40,0.83 Z M60.104,34.748 C59.379,37.677 57.135,39.901 54.197,41.025 C58.095,43.499 59.856,47.532 58.738,52.047 C57.042,58.897 50.127,62.429 43.106,60.691 L40.53,60.179 L38.441,68.616 L33.287,67.34 L35.436,58.659 L31.502,57.685 L29.353,66.366 L24.199,65.09 L26.348,56.409 L16.107,53.874 L18.721,48.259 L22.138,49.105 C23.285,49.389 24.445,48.689 24.729,47.542 L30.104,25.83 C30.505,24.21 29.517,22.572 27.897,22.171 L24.184,21.252 L25.561,15.691 L35.802,18.226 L37.834,10.02 L42.988,11.296 L40.956,19.502 L44.89,20.476 L46.922,12.27 L52.076,13.546 L49.948,22.142 L51.014,22.406 C57.334,23.97 61.405,29.496 60.104,34.748 Z" id="Shape"></path>
            <path d="M43.759,42.959 L35.719,40.618 L32.942,51.834 L41.194,53.319 C44.598,54.162 47.931,52.526 48.64,49.665 C49.348,46.803 47.163,43.801 43.759,42.959 Z" id="Shape"></path>
        </g>
    </g>
</svg>