<?xml version="1.0" encoding="UTF-8"?>
<svg width="64px" height="64px" viewBox="0 0 64 64" version="1.1" xmlns="http://www.w3.org/2000/svg" xmlns:xlink="http://www.w3.org/1999/xlink">
    <!-- Generator: Sketch 48 (47235) - http://www.bohemiancoding.com/sketch -->
    <title>noun_ethereum_1385431</title>
    <desc>Created with Sketch.</desc>
    <defs></defs>
    <g id="Page-1" stroke="none" stroke-width="1" fill="none" fill-rule="evenodd">
        <g id="noun_ethereum_1385431" transform="translate(-1.000000, -1.000000)" fill="#000000">
            <g id="Group" transform="translate(0.606245, 0.664290)">
                <g transform="translate(0.394452, 0.366374)" id="Shape">
                    <path d="M31.9992318,0.219266291 C14.4829983,0.219266291 0.249232999,14.4530316 0.249232999,31.9692651 C0.249232999,49.4855018 14.4829983,63.7192647 31.9992318,63.7192647 C49.5154658,63.7192647 63.7492314,49.4855018 63.7492314,31.9692651 C63.7492314,14.4530316 49.5154658,0.219266291 31.9992318,0.219266291 Z M31.9992318,3.39426625 C47.7995688,3.39426625 60.5742314,16.1689286 60.5742314,31.9692651 C60.5742314,47.7696048 47.7995688,60.5442647 31.9992318,60.5442647 C16.1988953,60.5442647 3.42423296,47.7696048 3.42423296,31.9692651 C3.42423296,16.1689286 16.1988953,3.39426625 31.9992318,3.39426625 Z" fill-rule="nonzero"></path>
                    <path d="M31.9940751,10.0649139 C31.5730198,10.0716343 31.193266,10.3196336 31.017834,10.7024618 L19.2660215,30.4492339 C19.0753019,30.6576223 18.9726621,30.9317492 18.9796232,31.2141549 C18.9731674,31.7087987 19.2997373,32.1461152 19.7758444,32.2804072 L31.3173953,39.3350586 C31.7173315,39.6620969 32.2916228,39.6644649 32.6942419,39.3407472 L44.3161944,32.2309512 C44.5265699,32.1496342 44.70664,32.0052326 44.8317112,31.8175424 L44.8319757,31.8170133 C44.8330341,31.8156903 44.8338278,31.8140764 44.8349126,31.8127535 C44.8515285,31.7876445 44.8670463,31.7619138 44.881519,31.7355507 C44.8942454,31.7122674 44.9061252,31.6885369 44.9170949,31.6643963 C44.9200317,31.6584961 44.9225982,31.652543 44.9252969,31.6465899 C44.9791846,31.524953 45.0104107,31.3944975 45.0174407,31.2616423 C45.0177053,31.2534402 45.0184991,31.245291 45.0184991,31.2370889 C45.0190282,31.2152608 45.0195574,31.1934486 45.0187636,31.1716284 C45.0182345,31.1469428 45.0169116,31.1222386 45.0145038,31.0976271 L45.0134455,31.0851652 C44.991882,30.8674607 44.9055114,30.6612313 44.7654674,30.4931573 L33.0008385,10.6991043 C32.8197206,10.3076215 32.4253062,10.0592651 31.9939931,10.0651097 L31.9940751,10.0649139 Z M20.8702219,36.083901 C20.1560824,36.1129364 19.6614942,36.8082772 19.8683586,37.492413 C19.869417,37.4945297 19.8699461,37.4971755 19.8707399,37.4995038 C19.8794182,37.5282455 19.8892607,37.5566089 19.9002647,37.5845356 C19.9105835,37.6102267 19.9218283,37.6354917 19.9340626,37.6603176 C19.9359147,37.6641276 19.9375816,37.6679376 19.9394072,37.6717211 C19.9766341,37.7473073 20.0224784,37.8183453 20.0760248,37.8834063 L31.0522457,53.3075217 C31.4660832,54.0595919 32.5455911,54.0630077 32.9641751,53.3135807 L43.9643409,37.8364375 C43.9771996,37.8182871 43.9895821,37.7998139 44.0013402,37.7809358 C44.0055471,37.7749563 44.009701,37.7688708 44.0138021,37.7627854 C44.6398644,36.756403 43.440794,35.6127046 42.4651138,36.285614 L32.0101009,42.712322 L21.5565141,36.2934404 C21.3578464,36.1483482 21.1160463,36.0745189 20.8702219,36.0838904 L20.8702219,36.083901 Z"></path>
                </g>
            </g>
        </g>
    </g>
</svg>