<?xml version="1.0" encoding="UTF-8"?>
<svg width="90px" height="90px" viewBox="0 0 90 90" version="1.1" xmlns="http://www.w3.org/2000/svg" xmlns:xlink="http://www.w3.org/1999/xlink">
    <!-- Generator: Sketch 48 (47235) - http://www.bohemiancoding.com/sketch -->
    <title>noun_coin_419078</title>
    <desc>Created with Sketch.</desc>
    <defs></defs>
    <g id="Page-1" stroke="none" stroke-width="1" fill="none" fill-rule="evenodd">
        <g id="noun_coin_419078" fill="#000000" fill-rule="nonzero">
            <path d="M45,0 C20.147,0 0,20.147 0,45 C0,69.853 20.147,90 45,90 C69.853,90 90,69.853 90,45 C90,20.147 69.853,0 45,0 Z M45,82.5 C24.289,82.5 7.5,65.711 7.5,45 C7.5,24.289 24.289,7.5 45,7.5 C65.711,7.5 82.5,24.289 82.5,45 C82.5,65.711 65.711,82.5 45,82.5 Z" id="Shape"></path>
            <path d="M45,20 C53.271,20 60,26.729 60,35 L65,35 C65,23.972 56.028,15 45,15 C33.972,15 25,23.972 25,35 L25,37.5 L20,37.5 L17.5,42.5 L25,42.5 L25,47.5 L20,47.5 L17.5,52.5 L25,52.5 L25,55 C25,66.028 33.972,75 45,75 C56.028,75 65,66.028 65,55 L60,55 C60,63.271 53.271,70 45,70 C36.729,70 30,63.271 30,55 L30,52.5 L47.5,52.5 L50,47.5 L30,47.5 L30,42.5 L47.5,42.5 L50,37.5 L30,37.5 L30,35 C30,26.729 36.729,20 45,20 Z" id="Shape"></path>
        </g>
    </g>
</svg>