<?xml version="1.0" encoding="UTF-8"?>
<svg width="232px" height="92px" viewBox="0 0 232 92" version="1.1" xmlns="http://www.w3.org/2000/svg" xmlns:xlink="http://www.w3.org/1999/xlink">
    <!-- Generator: Sketch 48 (47235) - http://www.bohemiancoding.com/sketch -->
    <title>Group 4</title>
    <desc>Created with Sketch.</desc>
    <defs></defs>
    <g id="Page-1" stroke="none" stroke-width="1" fill="none" fill-rule="evenodd">
        <g id="Group-4" transform="translate(4.000000, 8.000000)">
            <g id="Group" fill="#4A4A4A">
                <rect id="Rectangle-3" x="0" y="14" width="73" height="47" rx="8"></rect>
                <polygon id="Triangle" stroke="#4A4A4A" stroke-width="15" stroke-linecap="square" stroke-linejoin="round" points="36.5449103 0 69 19 4 19"></polygon>
                <polygon id="Triangle" stroke="#4A4A4A" stroke-width="15" stroke-linecap="square" stroke-linejoin="round" transform="translate(36.500000, 66.500000) scale(1, -1) translate(-36.500000, -66.500000) " points="36.5449103 57 69 76 4 76"></polygon>
            </g>
            <g id="Group-2" transform="translate(11.000000, 6.000000)">
                <path d="M0.529995845,12.6611822 L23.5299958,0.414060857 C24.0174778,0.154484729 24.6230881,0.339238926 24.8826642,0.826720904 C24.9597058,0.971404468 25,1.13280818 25,1.29672506 L25,61.1613786 C25,61.7136634 24.5522847,62.1613786 24,62.1613786 C23.819125,62.1613786 23.6416366,62.112321 23.4864366,62.0194303 L0.486436588,48.2534075 C0.184702438,48.0728128 7.15963146e-14,47.7470062 7.40518757e-14,47.3953559 L7.70494779e-14,13.5438464 C7.70042211e-14,13.1742969 0.203807727,12.834872 0.529995845,12.6611822 Z" id="Rectangle-2" fill="#F5A623"></path>
                <path d="M25.5299958,12.6611822 L48.5299958,0.414060857 C49.0174778,0.154484729 49.6230881,0.339238926 49.8826642,0.826720904 C49.9597058,0.971404468 50,1.13280818 50,1.29672506 L50,61.1613786 C50,61.7136634 49.5522847,62.1613786 49,62.1613786 C48.819125,62.1613786 48.6416366,62.112321 48.4864366,62.0194303 L25.4864366,48.2534075 C25.1847024,48.0728128 25,47.7470062 25,47.3953559 L25,13.5438464 C25,13.1742969 25.2038077,12.834872 25.5299958,12.6611822 Z" id="Rectangle-2" fill="#9B9B9B" transform="translate(37.500000, 31.228953) scale(-1, 1) translate(-37.500000, -31.228953) "></path>
            </g>
            <circle id="Oval" fill="#FFFFFF" opacity="0.51171875" cx="35.5" cy="37.5" r="18.5"></circle>
            <text id="E" font-family="Phosphate-Inline, Phosphate" font-size="58" font-weight="normal" fill="#4A4A4A">
                <tspan x="22.16" y="74">E</tspan>
            </text>
            <g id="Group-3" transform="translate(79.000000, 11.000000)" fill="#4A4A4A" font-weight="normal">
                <text id="EXTHEBIT" font-family="Phosphate-Inline, Phosphate" font-size="32">
                    <tspan x="0.152" y="29.6041667">EXTHEBIT</tspan>
                </text>
                <text id="Your-best-solution" font-family="Phosphate-Solid, Phosphate" font-size="16">
                    <tspan x="1.40002441" y="44.4020837">Your best solution</tspan>
                </text>
            </g>
        </g>
    </g>
</svg>