<?xml version="1.0" encoding="UTF-8"?>
<svg width="84px" height="84px" viewBox="0 0 84 84" version="1.1" xmlns="http://www.w3.org/2000/svg" xmlns:xlink="http://www.w3.org/1999/xlink">
    <!-- Generator: Sketch 48 (47235) - http://www.bohemiancoding.com/sketch -->
    <title>noun_Litecoin_1499189</title>
    <desc>Created with Sketch.</desc>
    <defs></defs>
    <g id="Page-1" stroke="none" stroke-width="1" fill="none" fill-rule="evenodd">
        <g id="noun_Litecoin_1499189" fill="#000000" fill-rule="nonzero">
            <path d="M42,0.082 C18.849,0.082 0.082,18.849 0.082,42 C0.082,65.151 18.85,83.918 42,83.918 C65.151,83.918 83.918,65.151 83.918,42 C83.918,18.849 65.151,0.082 42,0.082 Z M58.758,62.807 C58.73,62.903 58.642,62.968 58.542,62.968 L24.281,62.968 C24.211,62.968 24.146,62.936 24.103,62.881 C24.061,62.826 24.046,62.755 24.062,62.688 L27.326,49.62 L23.301,51.157 C23.234,51.183 23.154,51.174 23.093,51.132 C23.031,51.09 22.995,51.02 22.995,50.946 L22.995,45.865 C22.995,45.77 23.054,45.686 23.143,45.653 L28.834,43.581 L34.422,21.204 C34.447,21.104 34.537,21.033 34.64,21.033 L47.944,21.033 C48.014,21.033 48.08,21.066 48.123,21.122 C48.166,21.178 48.18,21.251 48.162,21.318 L43.54,38.224 L48.573,36.391 C48.644,36.366 48.718,36.375 48.78,36.418 C48.84,36.46 48.876,36.529 48.876,36.603 L48.876,41.234 C48.876,41.327 48.818,41.411 48.731,41.445 L41.952,44.034 L38.94,55.057 L60.779,55.057 C60.85,55.057 60.917,55.091 60.96,55.148 C61.003,55.205 61.016,55.279 60.995,55.348 L58.758,62.807 Z" id="Shape"></path>
        </g>
    </g>
</svg>