<?xml version="1.0" encoding="UTF-8"?>
<svg width="496px" height="496px" viewBox="0 0 496 496" version="1.1" xmlns="http://www.w3.org/2000/svg" xmlns:xlink="http://www.w3.org/1999/xlink">
    <!-- Generator: Sketch 48 (47235) - http://www.bohemiancoding.com/sketch -->
    <title>noun_uah_1543985</title>
    <desc>Created with Sketch.</desc>
    <defs></defs>
    <g id="Page-1" stroke="none" stroke-width="1" fill="none" fill-rule="evenodd">
        <g id="noun_uah_1543985" transform="translate(10.000000, 10.000000)">
            <circle id="Oval" stroke="#000000" stroke-width="20" cx="238" cy="238" r="237.5"></circle>
            <path d="M396.7,311 C321.5,311 246.3,311 171.1,311 C171.1,311.6 171.1,312.1 171.1,312.7 C171.1,312.9 171.1,313 171.1,313.2 C171.1,313.4 171.1,313.5 171.1,313.7 C171.1,330 179.1,342.5 195,351.3 C208,358.5 223.5,362 241.3,362 C283.9,362 320.5,352.2 351.1,332.5 C363.1,352.7 375.2,372.8 387.2,393 C369.1,403.2 351.6,410.4 334.5,414.5 C311.2,420.2 280.4,423 242.1,423 C201.9,423 169.2,415.2 143.8,399.6 C113.9,381.1 98.9,353.5 98.9,316.9 C98.9,316.4 98.9,315.8 98.9,314.9 C98.9,313.6 98.9,312.3 98.9,311 C92.4,311 85.9,311 79.4,311 C79.4,293.4 79.4,275.7 79.4,258.1 C91.6,258.1 103.8,258.1 116,258.1 C131.6,237 164.5,219.6 214.5,206.1 C169.5,206.1 124.4,206.1 79.4,206.1 C79.4,188.5 79.4,170.8 79.4,153.2 C155.4,153.2 231.4,153.2 307.4,153.2 C307.6,152.1 307.6,150.3 307.6,147.8 C307.6,135.1 300.2,125.7 285.4,119.5 C274.5,114.9 261.7,112.7 246.9,112.7 C212.8,112.7 181.1,121 152,137.6 C138.5,121.1 125,104.6 111.5,88.1 C151.4,64.7 196.3,53 246.2,53 C282.3,53 312,60.1 335.2,74.2 C362.8,91.1 376.7,115.9 376.7,148.6 C376.7,148.7 376.7,148.8 376.7,148.8 C376.7,149 376.7,149.2 376.7,149.5 C376.7,149.8 376.7,150.1 376.7,150.2 C376.7,151.2 376.7,152.2 376.7,153.1 C383.4,153.1 390,153.1 396.7,153.1 C396.7,170.7 396.7,188.4 396.7,206 C382.9,206 369.1,206 355.2,206 C343.5,218.2 325.9,228.8 302.5,238 C297.1,240.1 276.2,246.8 239.8,258 C292.1,258 344.4,258 396.6,258 C396.7,275.8 396.7,293.4 396.7,311 Z" id="Shape" fill="#000000" fill-rule="nonzero"></path>
        </g>
    </g>
</svg>