<?xml version="1.0" encoding="UTF-8"?>
<svg width="20px" height="20px" viewBox="0 0 20 20" version="1.1" xmlns="http://www.w3.org/2000/svg" xmlns:xlink="http://www.w3.org/1999/xlink">
    <!-- Generator: Sketch 48 (47235) - http://www.bohemiancoding.com/sketch -->
    <title>noun_dollar_791986</title>
    <desc>Created with Sketch.</desc>
    <defs></defs>
    <g id="Page-1" stroke="none" stroke-width="1" fill="none" fill-rule="evenodd">
        <g id="noun_dollar_791986" fill="#000000" fill-rule="nonzero">
            <g id="Group">
                <path d="M10,7 C10.6,7 11,7.4 11,8 L13,8 C13,6.7 12.2,5.6 11,5.2 L11,4 L9,4 L9,5.2 C7.8,5.6 7,6.7 7,8 C7,9.7 8.3,11 10,11 C10.6,11 11,11.4 11,12 C11,12.6 10.6,13 10,13 C9.4,13 9,12.6 9,12 L7,12 C7,13.3 7.8,14.4 9,14.8 L9,16 L11,16 L11,14.8 C12.2,14.4 13,13.3 13,12 C13,10.3 11.7,9 10,9 C9.4,9 9,8.6 9,8 C9,7.4 9.4,7 10,7 Z" id="Shape"></path>
                <path d="M10,0 C4.5,0 0,4.5 0,10 C0,15.5 4.5,20 10,20 C15.5,20 20,15.5 20,10 C20,4.5 15.5,0 10,0 Z M10,18 C5.6,18 2,14.4 2,10 C2,5.6 5.6,2 10,2 C14.4,2 18,5.6 18,10 C18,14.4 14.4,18 10,18 Z" id="Shape"></path>
            </g>
        </g>
    </g>
</svg>