<?xml version="1.0" encoding="UTF-8"?>
<svg width="92px" height="91px" viewBox="0 0 92 91" version="1.1" xmlns="http://www.w3.org/2000/svg" xmlns:xlink="http://www.w3.org/1999/xlink">
    <!-- Generator: Sketch 48 (47235) - http://www.bohemiancoding.com/sketch -->
    <title>noun_ripple_1529275</title>
    <desc>Created with Sketch.</desc>
    <defs></defs>
    <g id="Page-1" stroke="none" stroke-width="1" fill="none" fill-rule="evenodd">
        <g id="noun_ripple_1529275" fill="#000000" fill-rule="nonzero">
            <path d="M45.891,0 C20.969,0 0.766,20.203 0.766,45.125 C0.766,70.047 20.969,90.25 45.891,90.25 C70.813,90.25 91.016,70.047 91.016,45.125 C91.016,20.203 70.812,0 45.891,0 Z M67.733,67.754 C65.466,71.648 61.278,73.838 56.971,73.838 C54.918,73.838 52.839,73.341 50.929,72.293 C48.027,70.701 45.95,68.103 45.08,64.975 C44.229,61.912 44.645,58.705 46.252,55.944 C46.825,54.961 46.974,53.819 46.671,52.728 C46.36,51.611 45.616,50.681 44.576,50.11 C42.492,48.966 39.801,49.661 38.579,51.653 C38.561,51.681 38.541,51.708 38.519,51.732 L38.528,51.737 C35.181,57.487 27.642,59.524 21.724,56.277 C18.822,54.685 16.745,52.086 15.875,48.958 C15.024,45.896 15.44,42.689 17.047,39.929 C20.395,34.179 27.934,32.144 33.851,35.389 C35.744,36.427 37.323,37.934 38.421,39.752 C38.429,39.763 38.437,39.774 38.444,39.785 C39.714,41.75 42.421,42.382 44.473,41.196 C45.499,40.604 46.221,39.66 46.507,38.537 C46.785,37.439 46.611,36.3 46.016,35.327 C44.345,32.598 43.857,29.398 44.64,26.316 C45.44,23.174 47.455,20.533 50.319,18.881 C56.164,15.508 63.745,17.383 67.222,23.059 C68.892,25.788 69.381,28.987 68.597,32.069 C67.798,35.211 65.782,37.852 62.918,39.505 C61.049,40.585 58.915,41.165 56.744,41.185 C56.732,41.186 56.721,41.187 56.708,41.187 C54.296,41.269 52.357,43.235 52.386,45.569 C52.414,47.94 54.418,49.85 56.864,49.85 C56.885,49.85 56.906,49.85 56.924,49.85 C56.957,49.85 56.989,49.853 57.021,49.86 C59.131,49.863 61.215,50.397 63.056,51.406 C65.958,52.998 68.035,55.596 68.904,58.724 C69.755,61.785 69.339,64.992 67.733,67.754 Z" id="Shape"></path>
        </g>
    </g>
</svg>